<svg width="38" height="43" viewBox="0 0 38 43" fill="none" xmlns="http://www.w3.org/2000/svg">
<g id="ant-design:more-outlined">
<path id="Vector" d="M16.9219 9.7002C16.9219 10.3239 17.1408 10.922 17.5305 11.363C17.9203 11.804 18.4488 12.0518 19 12.0518C19.5512 12.0518 20.0797 11.804 20.4695 11.363C20.8592 10.922 21.0781 10.3239 21.0781 9.7002C21.0781 9.07652 20.8592 8.47839 20.4695 8.03739C20.0797 7.59639 19.5512 7.34863 19 7.34863C18.4488 7.34863 17.9203 7.59639 17.5305 8.03739C17.1408 8.47839 16.9219 9.07652 16.9219 9.7002ZM16.9219 21.458C16.9219 22.0817 17.1408 22.6798 17.5305 23.1208C17.9203 23.5618 18.4488 23.8096 19 23.8096C19.5512 23.8096 20.0797 23.5618 20.4695 23.1208C20.8592 22.6798 21.0781 22.0817 21.0781 21.458C21.0781 20.8343 20.8592 20.2362 20.4695 19.7952C20.0797 19.3542 19.5512 19.1064 19 19.1064C18.4488 19.1064 17.9203 19.3542 17.5305 19.7952C17.1408 20.2362 16.9219 20.8343 16.9219 21.458ZM16.9219 33.2158C16.9219 33.8395 17.1408 34.4376 17.5305 34.8786C17.9203 35.3196 18.4488 35.5674 19 35.5674C19.5512 35.5674 20.0797 35.3196 20.4695 34.8786C20.8592 34.4376 21.0781 33.8395 21.0781 33.2158C21.0781 32.5921 20.8592 31.994 20.4695 31.553C20.0797 31.112 19.5512 30.8643 19 30.8643C18.4488 30.8643 17.9203 31.112 17.5305 31.553C17.1408 31.994 16.9219 32.5921 16.9219 33.2158Z" fill="white"/>
</g>
</svg>
